# AST/ASF file generated using VICON BodyLanguage
# -----------------------------------------------
:version 1.10
:name VICON
:units
  mass 1.0
  length 0.45
  angle deg
:documentation
   .ast/.asf automatically generated from VICON data using
   VICON BodyBuilder and BodyLanguage model FoxedUp or BRILLIANT.MOD
:root
   order TX TY TZ RX RY RZ
   axis XYZ
   position 0 0 0  
   orientation 0 0 0 
:bonedata
  begin
     id 1 
     name lhipjoint
     direction 0.541323 -0.757556 0.364798 
     length 2.47576 
     axis 0 0 0  XYZ
  end
  begin
     id 2 
     name lfemur
     direction 0.34202 -0.939693 0  
     length 7.46493  
     axis 0 0 20  XYZ
    dof rx ry rz
    limits (-160.0 20.0)
           (-70.0 70.0)
           (-60.0 70.0)
  end
  begin
     id 3 
     name ltibia
     direction 0.34202 -0.939693 0   
     length 7.73805   
     axis 0 0 20   XYZ
    dof rx
    limits (-10.0 170.0)
  end
  begin
     id 4 
     name lfoot
     direction 0.107174 -0.294458 0.949636   
     length 2.25864   
     axis -90 7.62852e-016 20   XYZ
    dof rx rz
    limits (-45.0 90.0)
           (-70.0 20.0)
  end
  begin
     id 5 
     name ltoes
     direction 1.53606e-011 -4.21934e-011 1   
     length 1.12451   
     axis -90 7.62852e-016 20   XYZ
    dof rx
    limits (-90.0 20.0)
  end
  begin
     id 6 
     name rhipjoint
     direction -0.524745 -0.766967 0.36933   
     length 2.44538  
     axis 0 0 0  XYZ 
  end
  begin
     id 7 
     name rfemur
     direction -0.34202 -0.939693 0   
     length 7.61604   
     axis 0 0 -20   XYZ
    dof rx ry rz
    limits (-160.0 20.0)
           (-70.0 70.0)
           (-70.0 60.0)
  end
  begin
     id 8 
     name rtibia
     direction -0.34202 -0.939693 0   
     length 7.61056   
     axis 0 0 -20   XYZ
    dof rx
    limits (-10.0 170.0)
 end
 begin
     id 9 
     name rfoot
     direction -0.12616 -0.346623 0.929482   
     length 2.46372  
     axis -90 -7.62852e-016 -20   XYZ
    dof rx rz
    limits (-45.0 90.0)
           (-20.0 70.0)
  end
  begin
     id 10 
     name rtoes
     direction -1.53531e-011 -4.22004e-011 1   
     length 1.21611   
     axis -90 -7.62852e-016 -20   XYZ
    dof rx
    limits (-90.0 20.0)
  end
  begin
     id 11 
     name lowerback
     direction -0.000778023 0.997293 -0.0735223   
     length 2.06139   
     axis 0 0 0   XYZ
    dof rx ry rz
    limits (-20.0 45.0)
           (-30.0 30.0)
           (-30.0 30.0)
  end
  begin
     id 12 
     name upperback
     direction 0.0222598 0.999722 -0.0078355   
     length 2.06383   
     axis 0 0 0   XYZ
    dof rx ry rz
    limits (-20.0 45.0)
           (-30.0 30.0)
           (-30.0 30.0)
  end
  begin
     id 13 
     name thorax
     direction 0.0219654 0.999405 0.0265994   
     length 2.07163   
     axis 0 0 0   XYZ
    dof rx ry rz
    limits (-20.0 45.0)
           (-30.0 30.0)
           (-30.0 30.0)
  end
  begin
     id 14 
     name lowerneck
     direction 0.0213282 0.988147 0.15202   
     length 1.75969   
     axis 0 0 0   XYZ
    dof rx ry rz
    limits (-20.0 45.0)
           (-30.0 30.0)
           (-30.0 30.0)
  end
  begin
     id 15 
     name upperneck
     direction -0.0546456 0.982624 -0.177379   
     length 1.79244   
     axis 0 0 0   XYZ
    dof rx ry rz
    limits (-20.0 45.0)
           (-30.0 30.0)
           (-30.0 30.0)
  end
  begin
     id 16
     name head
     direction -0.0199987 0.996855 -0.076686  
     length 1.80555  
     axis 0 0 0   XYZ
    dof rx ry rz
    limits (-20.0 45.0)
           (-30.0 30.0)
           (-30.0 30.0)
  end
  begin
     id 17 
     name lclavicle
     direction 0.929565 0.363219 -0.063096  
     length 3.55722  
     axis 0 0 0   XYZ
    dof ry rz
    limits (-20.0 10.0)
           (0.0 20.0)
  end
  begin
     id 18 
     name lhumerus
     direction 1 -4.48993e-011 -2.36203e-027   
     length 4.92785   
     axis 180 -30 -90   XYZ
    dof rx ry rz
    limits (-60.0 90.0)
           (-90.0 90.0)
           (-90.0 90.0)
  end
  begin
     id 19
     name lradius
     direction 1 -4.48947e-011 2.02997e-027   
     length 3.44052   
     axis 180 -30 -90   XYZ
    dof rx
    limits (-10.0 170.0)
  end
  begin
     id 20
     name lwrist
     direction 1 -4.48962e-011 1.45991e-027   
     length 1.72026   
     axis 1.49639e-024 90 90   XYZ
    dof ry
    limits (-180.0 0.0)
 end
  begin
     id 21 
     name lhand
     direction 1 -4.48984e-011 2.91906e-027   
     length 0.654326   
     axis -1.863e-015 90 90   XYZ
    dof rx rz
    limits (-90.0 90.0)
           (-45.0 45.0)
  end
  begin
     id 22 
     name lfingers
     direction 1 -4.48961e-011 5.83968e-027   
     length 0.527534   
     axis -3.72598e-015 90 90   XYZ
    dof rx
    limits (0.0 90.0)
  end
  begin
     id 23
     name lthumb
     direction 0.707107 -6.34963e-011 0.707107   
     length 0.757437   
     axis -90 45 -6.68868e-015   XYZ
    dof rx rz
    limits (-45.0 45.0)
           (-45.0 45.0)
  end
  begin
     id 24 
     name rclavicle
     direction -0.902944 0.422599 -0.0781198   
     length 3.54432  
     axis 0 0 0   XYZ 
    dof ry rz
    limits (-10.0 20.0)
           (-20.0 0.0)
  end
  begin
     id 25 
     name rhumerus
     direction -1 -4.48953e-011 -4.75835e-028  
     length 5.09181   
     axis 180 30 90   XYZ
    dof rx ry rz
    limits (-90.0 60.0)
           (-90.0 90.0)
           (-90.0 90.0)
  end
  begin
     id 26 
     name rradius
     direction -1 -4.48986e-011 -3.25889e-027   
     length 3.49865   
     axis 180 30 90   XYZ
    dof rx
    limits (-10.0 170.0)
  end
  begin
     id 27 
     name rwrist
     direction -1 -4.48963e-011 1.45989e-027   
     length 1.74933   
     axis 1.49639e-024 -90 -90   XYZ
    dof ry
    limits (-180.0 0.0)
  end
  begin
     id 28
     name rhand
     direction -1 -4.49003e-011 2.91844e-027   
     length 0.66641   
     axis -1.863e-015 -90 -90   XYZ
    dof rx rz
    limits (-90.0 90.0)
           (-45.0 45.0)
  end
  begin
     id 29
     name rfingers
     direction -1 -4.48973e-011 5.83886e-027   
     length 0.537277   
     axis -3.72598e-015 -90 -90   XYZ
    dof rx
    limits (0.0 90.0)
  end
  begin
     id 30
     name rthumb
     direction -0.707107 -6.34976e-011 0.707107   
     length 0.771425   
     axis -90 -45 6.68868e-015   XYZ
    dof rx rz
    limits (-45.0 45.0)
           (-45.0 45.0)
  end
:hierarchy
  begin
    root lhipjoint rhipjoint lowerback
    lhipjoint lfemur
    lfemur ltibia
    ltibia lfoot
    lfoot ltoes
    rhipjoint rfemur
    rfemur rtibia
    rtibia rfoot
    rfoot rtoes
    lowerback upperback
    upperback thorax
    thorax lowerneck lclavicle rclavicle
    lowerneck upperneck
    upperneck head
    lclavicle lhumerus
    lhumerus lradius
    lradius lwrist
    lwrist lhand lthumb
    lhand lfingers
    rclavicle rhumerus
    rhumerus rradius
    rradius rwrist
    rwrist rhand rthumb
    rhand rfingers
  end

#!OML:ASF H:\LiuWeirdWalks\Patient Classification 1\Patient 1\Session 1\male.ASF
:FULLY-SPECIFIED
:DEGREES
20
root 1.61983 17.8145 -28.448 -1.59954 4.66865 -0.868484
lowerback 9.31354 -4.35828 -8.08833
upperback 0.870072 -6.41756 6.10946
thorax -2.67945 -3.13578 11.8316
lowerneck -23.481 6.56442 6.28701
upperneck 31.7099 11.5733 -11.7201
head 16.5628 3.90221 -3.72392
rclavicle -6.16232e-015 3.02153e-014
rhumerus -36.3365 11.0563 -71.1673
rradius 39.2994
rwrist -8.82636
rhand -9.38605 3.08172
rfingers 7.12502
rthumb 16.5748 -26.2305
lclavicle -6.16232e-015 3.02153e-014
lhumerus -35.5765 22.7742 80.8924
lradius 28.3974
lwrist 1.85891
lhand -14.1742 -0.812445
lfingers 7.12502
lthumb 11.9612 28.8258
rfemur -25.2048 -8.97493 10.2996
rtibia 76.4007
rfoot 7.73494 -5.20221
rtoes -3.15197
lfemur -4.57298 2.46149 -26.4448
ltibia 24.8655
lfoot -13.0597 10.5662
ltoes -5.01773
21
root 1.62409 17.8139 -28.4457 -1.59169 4.63696 -0.886951
lowerback 9.2385 -4.37176 -8.07873
upperback 0.899423 -6.43022 6.1194
thorax -2.60301 -3.14887 11.8268
lowerneck -23.6129 6.5485 6.18992
upperneck 31.6235 11.5344 -11.6233
head 16.5277 3.88454 -3.66584
rclavicle -4.82053e-014 -2.54444e-014
rhumerus -36.245 11.161 -71.1628
rradius 39.3531
rwrist -8.85455
rhand -9.38324 3.09276
rfingers 7.12502
rthumb 16.5775 -26.2192
lclavicle -4.82053e-014 -2.54444e-014
lhumerus -35.5372 22.911 80.8583
lradius 28.283
lwrist 1.7485
lhand -14.1911 -0.868528
lfingers 7.12502
lthumb 11.9448 28.7707
rfemur -25.2105 -9.04476 10.3058
rtibia 76.3659
rfoot 7.77256 -5.21201
rtoes -3.50788
lfemur -4.57849 2.61766 -26.3879
ltibia 24.8794
lfoot -13.1671 10.3327
ltoes -5.12158
22
root 1.62789 17.8133 -28.4427 -1.59115 4.61101 -0.888311
lowerback 9.16156 -4.40103 -8.09316
upperback 0.922815 -6.46657 6.13085
thorax -2.52282 -3.17379 11.8394
lowerneck -23.7127 6.57091 6.14746
upperneck 31.5342 11.5476 -11.5665
head 16.499 3.89098 -3.62395
rclavicle -7.25564e-015 3.81667e-014
rhumerus -36.1525 11.31 -71.1597
rradius 39.3975
rwrist -8.86851
rhand -9.37507 3.12334
rfingers 7.12502
rthumb 16.5854 -26.1879
lclavicle -7.25564e-015 3.81667e-014
lhumerus -35.5397 23.0957 80.8044
lradius 28.183
lwrist 1.64746
lhand -14.1888 -0.955422
lfingers 7.12502
lthumb 11.947 28.6837
rfemur -25.1961 -9.12037 10.2861
rtibia 76.3227
rfoot 7.79796 -5.2229
rtoes -3.74112
lfemur -4.56173 2.77554 -26.3442
ltibia 24.8778
lfoot -13.2742 10.079
ltoes -5.21501
23
root 1.63136 17.8128 -28.4393 -1.59383 4.59707 -0.873575
lowerback 9.0843 -4.41182 -8.12175
upperback 0.905485 -6.48083 6.09226
thorax -2.49616 -3.18157 11.8057
lowerneck -23.6806 6.53576 6.16742
upperneck 31.4388 11.441 -11.4876
head 16.4222 3.86462 -3.61188
rclavicle 8.51792e-014 -1.43125e-014
rhumerus -36.2086 11.347 -71.2174
rradius 39.4503
rwrist -8.85392
rhand -9.35873 3.17499
rfingers 7.12502
rthumb 16.6011 -26.135
lclavicle 8.51792e-014 -1.43125e-014
lhumerus -35.6336 23.1152 80.69
lradius 28.1152
lwrist 1.61667
lhand -14.1711 -0.956688
lfingers 7.12502
lthumb 11.9641 28.6814
rfemur -25.1657 -9.21125 10.2386
rtibia 76.2732
rfoot 7.80749 -5.23665
rtoes -3.83149
lfemur -4.52789 2.93426 -26.3141
ltibia 24.8615
lfoot -13.3771 9.80314
ltoes -5.31238
24
root 1.63455 17.8125 -28.4353 -1.5994 4.59361 -0.851693
lowerback 9.02396 -4.42809 -8.16771
upperback 0.873784 -6.50518 6.05318
thorax -2.48968 -3.19233 11.7853
lowerneck -23.6116 6.50622 6.20438
upperneck 31.3182 11.3365 -11.4157
head 16.327 3.84231 -3.60477
rclavicle 6.05299e-014 -5.56597e-014
rhumerus -36.2945 11.3992 -71.2786
rradius 39.5089
rwrist -8.84911
rhand -9.34769 3.22133
rfingers 7.12502
rthumb 16.6117 -26.0877
lclavicle 6.05299e-014 -5.56597e-014
lhumerus -35.7736 23.1422 80.5639
lradius 28.069
lwrist 1.58671
lhand -14.1742 -0.945655
lfingers 7.12502
lthumb 11.9612 28.6926
rfemur -25.1221 -9.31831 10.1752
rtibia 76.2158
rfoot 7.80233 -5.24908
rtoes -3.74496
lfemur -4.48204 3.0894 -26.2878
ltibia 24.8376
lfoot -13.4777 9.50849
ltoes -5.40752
25
root 1.63739 17.8122 -28.4311 -1.60387 4.59969 -0.83296
lowerback 8.98737 -4.41527 -8.22629
upperback 0.875489 -6.49268 6.02467
thorax -2.46761 -3.18696 11.7825
lowerneck -23.6924 6.41041 6.06871
upperneck 31.2187 11.1539 -11.2183
head 16.2428 3.77743 -3.5283
rclavicle 5.68524e-014 -1.11319e-014
rhumerus -36.3181 11.365 -71.285
rradius 39.569
rwrist -8.8626
rhand -9.34361 3.24803
rfingers 7.12502
rthumb 16.6157 -26.0607
lclavicle 5.68524e-014 -1.11319e-014
lhumerus -35.7881 23.1489 80.5158
lradius 27.9915
lwrist 1.51932
lhand -14.2167 -0.936201
lfingers 7.12502
lthumb 11.9201 28.7044
rfemur -25.0771 -9.43897 10.1113
rtibia 76.1518
rfoot 7.78303 -5.26593
rtoes -3.68528
lfemur -4.43473 3.23935 -26.255
ltibia 24.8103
lfoot -13.568 9.20214
ltoes -5.49633
26
root 1.63986 17.812 -28.4268 -1.60429 4.6118 -0.829357
lowerback 8.9709 -4.40626 -8.28268
upperback 0.865179 -6.48597 6.00651
thorax -2.46701 -3.18264 11.7938
lowerneck -23.7733 6.31488 5.93129
upperneck 31.1148 10.9752 -11.0268
head 16.1588 3.71328 -3.45353
rclavicle -2.75317e-014 9.54166e-015
rhumerus -36.3515 11.3381 -71.285
rradius 39.628
rwrist -8.87977
rhand -9.34892 3.26033
rfingers 7.12502
rthumb 16.6105 -26.0488
lclavicle -2.75317e-014 9.54166e-015
lhumerus -35.8138 23.1658 80.468
lradius 27.9214
lwrist 1.47399
lhand -14.2621 -0.879651
lfingers 7.12502
lthumb 11.8764 28.7635
rfemur -25.0373 -9.56375 10.0629
rtibia 76.0813
rfoot 7.75802 -5.29518
rtoes -3.61516
lfemur -4.39454 3.38355 -26.2035
ltibia 24.7857
lfoot -13.6585 8.89003
ltoes -5.55762
27
root 1.64212 17.8118 -28.4227 -1.59823 4.63222 -0.822308
lowerback 8.97443 -4.40403 -8.34944
upperback 0.838692 -6.49063 5.99048
thorax -2.49039 -3.18164 11.8177
lowerneck -23.8564 6.22509 5.80094
upperneck 31.0345 10.8085 -10.8413
head 16.0908 3.65348 -3.38127
rclavicle -5.93372e-014 1.59028e-014
rhumerus -36.4018 11.3185 -71.2832
rradius 39.6838
rwrist -8.88779
rhand -9.35576 3.26226
rfingers 7.12502
rthumb 16.604 -26.0475
lclavicle -5.93372e-014 1.59028e-014
lhumerus -35.8671 23.1983 80.4079
lradius 27.8505
lwrist 1.41337
lhand -14.3214 -0.87518
lfingers 7.12502
lthumb 11.8192 28.7713
rfemur -25.0052 -9.7006 10.0056
rtibia 76.0064
rfoot 7.73271 -5.3232
rtoes -3.55569
lfemur -4.36117 3.52039 -26.156
ltibia 24.7624
lfoot -13.7504 8.5736
ltoes -5.5909
28
root 1.64383 17.8117 -28.419 -1.5855 4.65448 -0.830223
lowerback 8.98096 -4.40492 -8.4101
upperback 0.806851 -6.49897 5.97836
thorax -2.52039 -3.18186 11.8434
lowerneck -23.9341 6.13725 5.68974
upperneck 30.9492 10.644 -10.6743
head 16.0235 3.59471 -3.32018
rclavicle 3.37934e-015 -5.24792e-014
rhumerus -36.4547 11.2882 -71.2815
rradius 39.729
rwrist -8.88075
rhand -9.36712 3.26149
rfingers 7.12502
rthumb 16.593 -26.0492
lclavicle 3.37934e-015 -5.24792e-014
lhumerus -35.9205 23.2288 80.3457
lradius 27.7934
lwrist 1.39138
lhand -14.3589 -0.81915
lfingers 7.12502
lthumb 11.783 28.8294
rfemur -24.9882 -9.83254 9.96801
rtibia 75.9273
rfoot 7.72044 -5.36279
rtoes -3.47406
lfemur -4.33858 3.65657 -26.0903
ltibia 24.7385
lfoot -13.8433 8.25204
ltoes -5.58839
29
root 1.64567 17.8116 -28.4147 -1.58799 4.65326 -0.844671
lowerback 8.97954 -4.39845 -8.46667
upperback 0.785843 -6.49664 5.96289
thorax -2.5381 -3.17801 11.8606
lowerneck -24.0018 6.0319 5.55896
upperneck 30.8733 10.4617 -10.5029
head 15.9557 3.52693 -3.25843
rclavicle 5.06901e-015 -3.33958e-014
rhumerus -36.5166 11.2464 -71.2821
rradius 39.7766
rwrist -8.86969
rhand -9.38274 3.25549
rfingers 7.12502
rthumb 16.578 -26.0564
lclavicle 5.06901e-015 -3.33958e-014
lhumerus -35.9764 23.2497 80.2842
lradius 27.7598
lwrist 1.38314
lhand -14.3628 -0.73393
lfingers 7.12502
lthumb 11.7793 28.9148
rfemur -24.961 -9.93201 9.93287
rtibia 75.8445
rfoot 7.71972 -5.40445
rtoes -3.36317
lfemur -4.29507 3.80249 -26.0188
ltibia 24.7088
lfoot -13.9354 7.95024
ltoes -5.5528
